<mxfile host="Electron" modified="2024-06-04T02:50:45.692Z" agent="Mozilla/5.0 (Windows NT 10.0; Win64; x64) AppleWebKit/537.36 (KHTML, like Gecko) draw.io/24.4.7 Chrome/124.0.6367.207 Electron/30.0.6 Safari/537.36" etag="MNTxhx0x1xsLDb8QWAaN" version="24.4.7" type="device">
  <diagram name="第 1 页" id="SIPYgJDZl89mPnQJVRgj">
    <mxGraphModel dx="2401" dy="1003" grid="1" gridSize="10" guides="1" tooltips="1" connect="1" arrows="1" fold="1" page="1" pageScale="1" pageWidth="827" pageHeight="1169" math="0" shadow="0">
      <root>
        <mxCell id="0" />
        <mxCell id="1" parent="0" />
        <mxCell id="NIfDBaiQn6gE6HbyJ36T-1" value="UNO_Player" style="shape=umlActor;verticalLabelPosition=bottom;verticalAlign=top;html=1;outlineConnect=0;" vertex="1" parent="1">
          <mxGeometry x="-140" y="280" width="50" height="90" as="geometry" />
        </mxCell>
        <mxCell id="NIfDBaiQn6gE6HbyJ36T-3" value="出牌" style="ellipse;whiteSpace=wrap;html=1;" vertex="1" parent="1">
          <mxGeometry x="150" y="160" width="120" height="80" as="geometry" />
        </mxCell>
        <mxCell id="NIfDBaiQn6gE6HbyJ36T-5" value="抽牌" style="ellipse;whiteSpace=wrap;html=1;strokeColor=default;align=center;verticalAlign=middle;fontFamily=Helvetica;fontSize=12;fontColor=default;fillColor=default;" vertex="1" parent="1">
          <mxGeometry x="190" y="300" width="120" height="80" as="geometry" />
        </mxCell>
        <mxCell id="NIfDBaiQn6gE6HbyJ36T-8" value="质疑" style="ellipse;whiteSpace=wrap;html=1;strokeColor=default;align=center;verticalAlign=middle;fontFamily=Helvetica;fontSize=12;fontColor=default;fillColor=default;" vertex="1" parent="1">
          <mxGeometry x="180" y="430" width="120" height="80" as="geometry" />
        </mxCell>
        <mxCell id="NIfDBaiQn6gE6HbyJ36T-9" value="喊UNO" style="ellipse;whiteSpace=wrap;html=1;strokeColor=default;align=center;verticalAlign=middle;fontFamily=Helvetica;fontSize=12;fontColor=default;fillColor=default;" vertex="1" parent="1">
          <mxGeometry x="50" y="60" width="120" height="80" as="geometry" />
        </mxCell>
        <mxCell id="NIfDBaiQn6gE6HbyJ36T-10" value="获取帮助" style="ellipse;whiteSpace=wrap;html=1;strokeColor=default;align=center;verticalAlign=middle;fontFamily=Helvetica;fontSize=12;fontColor=default;fillColor=default;" vertex="1" parent="1">
          <mxGeometry x="90" y="545" width="120" height="80" as="geometry" />
        </mxCell>
        <mxCell id="NIfDBaiQn6gE6HbyJ36T-11" value="直接结算游戏" style="ellipse;whiteSpace=wrap;html=1;strokeColor=default;align=center;verticalAlign=middle;fontFamily=Helvetica;fontSize=12;fontColor=default;fillColor=default;" vertex="1" parent="1">
          <mxGeometry x="-40" y="620" width="120" height="80" as="geometry" />
        </mxCell>
        <mxCell id="NIfDBaiQn6gE6HbyJ36T-12" value="" style="endArrow=none;html=1;rounded=0;fontFamily=Helvetica;fontSize=12;fontColor=default;" edge="1" parent="1" source="NIfDBaiQn6gE6HbyJ36T-1" target="NIfDBaiQn6gE6HbyJ36T-9">
          <mxGeometry width="50" height="50" relative="1" as="geometry">
            <mxPoint x="-50" y="360" as="sourcePoint" />
            <mxPoint x="170" y="250" as="targetPoint" />
          </mxGeometry>
        </mxCell>
        <mxCell id="NIfDBaiQn6gE6HbyJ36T-13" value="" style="endArrow=none;html=1;rounded=0;fontFamily=Helvetica;fontSize=12;fontColor=default;" edge="1" parent="1" source="NIfDBaiQn6gE6HbyJ36T-1" target="NIfDBaiQn6gE6HbyJ36T-11">
          <mxGeometry width="50" height="50" relative="1" as="geometry">
            <mxPoint x="120" y="300" as="sourcePoint" />
            <mxPoint x="170" y="250" as="targetPoint" />
          </mxGeometry>
        </mxCell>
        <mxCell id="NIfDBaiQn6gE6HbyJ36T-14" value="" style="endArrow=none;html=1;rounded=0;fontFamily=Helvetica;fontSize=12;fontColor=default;" edge="1" parent="1" source="NIfDBaiQn6gE6HbyJ36T-1" target="NIfDBaiQn6gE6HbyJ36T-10">
          <mxGeometry width="50" height="50" relative="1" as="geometry">
            <mxPoint x="120" y="300" as="sourcePoint" />
            <mxPoint x="170" y="250" as="targetPoint" />
          </mxGeometry>
        </mxCell>
        <mxCell id="NIfDBaiQn6gE6HbyJ36T-15" value="" style="endArrow=none;html=1;rounded=0;fontFamily=Helvetica;fontSize=12;fontColor=default;" edge="1" parent="1" source="NIfDBaiQn6gE6HbyJ36T-1" target="NIfDBaiQn6gE6HbyJ36T-8">
          <mxGeometry width="50" height="50" relative="1" as="geometry">
            <mxPoint x="120" y="300" as="sourcePoint" />
            <mxPoint x="170" y="250" as="targetPoint" />
          </mxGeometry>
        </mxCell>
        <mxCell id="NIfDBaiQn6gE6HbyJ36T-16" value="" style="endArrow=none;html=1;rounded=0;fontFamily=Helvetica;fontSize=12;fontColor=default;" edge="1" parent="1" source="NIfDBaiQn6gE6HbyJ36T-1" target="NIfDBaiQn6gE6HbyJ36T-5">
          <mxGeometry width="50" height="50" relative="1" as="geometry">
            <mxPoint x="120" y="300" as="sourcePoint" />
            <mxPoint x="170" y="250" as="targetPoint" />
          </mxGeometry>
        </mxCell>
        <mxCell id="NIfDBaiQn6gE6HbyJ36T-17" value="" style="endArrow=none;html=1;rounded=0;fontFamily=Helvetica;fontSize=12;fontColor=default;" edge="1" parent="1" source="NIfDBaiQn6gE6HbyJ36T-1" target="NIfDBaiQn6gE6HbyJ36T-3">
          <mxGeometry width="50" height="50" relative="1" as="geometry">
            <mxPoint x="120" y="300" as="sourcePoint" />
            <mxPoint x="170" y="250" as="targetPoint" />
          </mxGeometry>
        </mxCell>
        <mxCell id="NIfDBaiQn6gE6HbyJ36T-20" value="BJ_Player" style="shape=umlActor;verticalLabelPosition=bottom;verticalAlign=top;html=1;outlineConnect=0;" vertex="1" parent="1">
          <mxGeometry x="-120" y="1060" width="50" height="90" as="geometry" />
        </mxCell>
        <mxCell id="NIfDBaiQn6gE6HbyJ36T-21" value="投降" style="ellipse;whiteSpace=wrap;html=1;strokeColor=default;align=center;verticalAlign=middle;fontFamily=Helvetica;fontSize=12;fontColor=default;fillColor=default;" vertex="1" parent="1">
          <mxGeometry x="180" y="1100" width="120" height="80" as="geometry" />
        </mxCell>
        <mxCell id="NIfDBaiQn6gE6HbyJ36T-22" value="分牌" style="ellipse;whiteSpace=wrap;html=1;strokeColor=default;align=center;verticalAlign=middle;fontFamily=Helvetica;fontSize=12;fontColor=default;fillColor=default;" vertex="1" parent="1">
          <mxGeometry x="-10" y="1320" width="120" height="80" as="geometry" />
        </mxCell>
        <mxCell id="NIfDBaiQn6gE6HbyJ36T-23" value="要牌" style="ellipse;whiteSpace=wrap;html=1;strokeColor=default;align=center;verticalAlign=middle;fontFamily=Helvetica;fontSize=12;fontColor=default;fillColor=default;" vertex="1" parent="1">
          <mxGeometry x="70" y="870" width="120" height="80" as="geometry" />
        </mxCell>
        <mxCell id="NIfDBaiQn6gE6HbyJ36T-24" value="停牌" style="ellipse;whiteSpace=wrap;html=1;strokeColor=default;align=center;verticalAlign=middle;fontFamily=Helvetica;fontSize=12;fontColor=default;fillColor=default;" vertex="1" parent="1">
          <mxGeometry x="-80" y="800" width="120" height="80" as="geometry" />
        </mxCell>
        <mxCell id="NIfDBaiQn6gE6HbyJ36T-26" value="加倍赌注" style="ellipse;whiteSpace=wrap;html=1;strokeColor=default;align=center;verticalAlign=middle;fontFamily=Helvetica;fontSize=12;fontColor=default;fillColor=default;" vertex="1" parent="1">
          <mxGeometry x="-350" y="1310" width="120" height="80" as="geometry" />
        </mxCell>
        <mxCell id="NIfDBaiQn6gE6HbyJ36T-27" value="下注" style="ellipse;whiteSpace=wrap;html=1;strokeColor=default;align=center;verticalAlign=middle;fontFamily=Helvetica;fontSize=12;fontColor=default;fillColor=default;" vertex="1" parent="1">
          <mxGeometry x="-180" y="1360" width="120" height="80" as="geometry" />
        </mxCell>
        <mxCell id="NIfDBaiQn6gE6HbyJ36T-28" value="模式选择" style="ellipse;whiteSpace=wrap;html=1;strokeColor=default;align=center;verticalAlign=middle;fontFamily=Helvetica;fontSize=12;fontColor=default;fillColor=default;" vertex="1" parent="1">
          <mxGeometry x="180" y="980" width="120" height="80" as="geometry" />
        </mxCell>
        <mxCell id="NIfDBaiQn6gE6HbyJ36T-29" value="投降" style="ellipse;whiteSpace=wrap;html=1;strokeColor=default;align=center;verticalAlign=middle;fontFamily=Helvetica;fontSize=12;fontColor=default;fillColor=default;" vertex="1" parent="1">
          <mxGeometry x="110" y="1220" width="120" height="80" as="geometry" />
        </mxCell>
        <mxCell id="NIfDBaiQn6gE6HbyJ36T-30" value="继续游戏或退出" style="ellipse;whiteSpace=wrap;html=1;strokeColor=default;align=center;verticalAlign=middle;fontFamily=Helvetica;fontSize=12;fontColor=default;fillColor=default;" vertex="1" parent="1">
          <mxGeometry x="-480" y="1210" width="120" height="80" as="geometry" />
        </mxCell>
        <mxCell id="NIfDBaiQn6gE6HbyJ36T-31" value="继续游戏或退出" style="ellipse;whiteSpace=wrap;html=1;strokeColor=default;align=center;verticalAlign=middle;fontFamily=Helvetica;fontSize=12;fontColor=default;fillColor=default;" vertex="1" parent="1">
          <mxGeometry x="-200" y="640" width="120" height="80" as="geometry" />
        </mxCell>
        <mxCell id="NIfDBaiQn6gE6HbyJ36T-34" value="" style="endArrow=none;html=1;rounded=0;fontFamily=Helvetica;fontSize=12;fontColor=default;" edge="1" parent="1" source="NIfDBaiQn6gE6HbyJ36T-30" target="NIfDBaiQn6gE6HbyJ36T-20">
          <mxGeometry width="50" height="50" relative="1" as="geometry">
            <mxPoint x="-180" y="1080" as="sourcePoint" />
            <mxPoint x="-130" y="1030" as="targetPoint" />
          </mxGeometry>
        </mxCell>
        <mxCell id="NIfDBaiQn6gE6HbyJ36T-35" value="" style="endArrow=none;html=1;rounded=0;fontFamily=Helvetica;fontSize=12;fontColor=default;" edge="1" parent="1" source="NIfDBaiQn6gE6HbyJ36T-29" target="NIfDBaiQn6gE6HbyJ36T-20">
          <mxGeometry width="50" height="50" relative="1" as="geometry">
            <mxPoint x="-180" y="1080" as="sourcePoint" />
            <mxPoint x="-130" y="1030" as="targetPoint" />
          </mxGeometry>
        </mxCell>
        <mxCell id="NIfDBaiQn6gE6HbyJ36T-36" value="" style="endArrow=none;html=1;rounded=0;fontFamily=Helvetica;fontSize=12;fontColor=default;" edge="1" parent="1" source="NIfDBaiQn6gE6HbyJ36T-21" target="NIfDBaiQn6gE6HbyJ36T-20">
          <mxGeometry width="50" height="50" relative="1" as="geometry">
            <mxPoint x="-180" y="1080" as="sourcePoint" />
            <mxPoint x="-130" y="1030" as="targetPoint" />
          </mxGeometry>
        </mxCell>
        <mxCell id="NIfDBaiQn6gE6HbyJ36T-37" value="" style="endArrow=none;html=1;rounded=0;fontFamily=Helvetica;fontSize=12;fontColor=default;" edge="1" parent="1" source="NIfDBaiQn6gE6HbyJ36T-28" target="NIfDBaiQn6gE6HbyJ36T-20">
          <mxGeometry width="50" height="50" relative="1" as="geometry">
            <mxPoint x="-180" y="1080" as="sourcePoint" />
            <mxPoint x="-130" y="1030" as="targetPoint" />
          </mxGeometry>
        </mxCell>
        <mxCell id="NIfDBaiQn6gE6HbyJ36T-38" value="" style="endArrow=none;html=1;rounded=0;fontFamily=Helvetica;fontSize=12;fontColor=default;" edge="1" parent="1" source="NIfDBaiQn6gE6HbyJ36T-20" target="NIfDBaiQn6gE6HbyJ36T-23">
          <mxGeometry width="50" height="50" relative="1" as="geometry">
            <mxPoint x="-180" y="1080" as="sourcePoint" />
            <mxPoint x="-130" y="1030" as="targetPoint" />
          </mxGeometry>
        </mxCell>
        <mxCell id="NIfDBaiQn6gE6HbyJ36T-39" value="" style="endArrow=none;html=1;rounded=0;fontFamily=Helvetica;fontSize=12;fontColor=default;" edge="1" parent="1" source="NIfDBaiQn6gE6HbyJ36T-24" target="NIfDBaiQn6gE6HbyJ36T-20">
          <mxGeometry width="50" height="50" relative="1" as="geometry">
            <mxPoint x="-180" y="1080" as="sourcePoint" />
            <mxPoint x="-130" y="1030" as="targetPoint" />
          </mxGeometry>
        </mxCell>
        <mxCell id="NIfDBaiQn6gE6HbyJ36T-40" value="" style="endArrow=none;html=1;rounded=0;fontFamily=Helvetica;fontSize=12;fontColor=default;" edge="1" parent="1" source="NIfDBaiQn6gE6HbyJ36T-27" target="NIfDBaiQn6gE6HbyJ36T-20">
          <mxGeometry width="50" height="50" relative="1" as="geometry">
            <mxPoint x="-180" y="1080" as="sourcePoint" />
            <mxPoint x="-130" y="1030" as="targetPoint" />
          </mxGeometry>
        </mxCell>
        <mxCell id="NIfDBaiQn6gE6HbyJ36T-41" value="" style="endArrow=none;html=1;rounded=0;fontFamily=Helvetica;fontSize=12;fontColor=default;" edge="1" parent="1" source="NIfDBaiQn6gE6HbyJ36T-26" target="NIfDBaiQn6gE6HbyJ36T-20">
          <mxGeometry width="50" height="50" relative="1" as="geometry">
            <mxPoint x="-180" y="1080" as="sourcePoint" />
            <mxPoint x="-130" y="1030" as="targetPoint" />
          </mxGeometry>
        </mxCell>
        <mxCell id="NIfDBaiQn6gE6HbyJ36T-42" value="" style="endArrow=none;html=1;rounded=0;fontFamily=Helvetica;fontSize=12;fontColor=default;" edge="1" parent="1" source="NIfDBaiQn6gE6HbyJ36T-22" target="NIfDBaiQn6gE6HbyJ36T-20">
          <mxGeometry width="50" height="50" relative="1" as="geometry">
            <mxPoint x="-180" y="1080" as="sourcePoint" />
            <mxPoint x="-130" y="1030" as="targetPoint" />
          </mxGeometry>
        </mxCell>
        <mxCell id="NIfDBaiQn6gE6HbyJ36T-43" value="" style="endArrow=none;html=1;rounded=0;fontFamily=Helvetica;fontSize=12;fontColor=default;" edge="1" parent="1" source="NIfDBaiQn6gE6HbyJ36T-1" target="NIfDBaiQn6gE6HbyJ36T-31">
          <mxGeometry width="50" height="50" relative="1" as="geometry">
            <mxPoint x="-400" y="470" as="sourcePoint" />
            <mxPoint x="-451" y="651" as="targetPoint" />
          </mxGeometry>
        </mxCell>
        <mxCell id="NIfDBaiQn6gE6HbyJ36T-44" value="User" style="shape=umlActor;verticalLabelPosition=bottom;verticalAlign=top;html=1;outlineConnect=0;" vertex="1" parent="1">
          <mxGeometry x="-820" y="320" width="50" height="90" as="geometry" />
        </mxCell>
        <mxCell id="NIfDBaiQn6gE6HbyJ36T-47" value="游戏人数指定" style="ellipse;whiteSpace=wrap;html=1;strokeColor=default;align=center;verticalAlign=middle;fontFamily=Helvetica;fontSize=12;fontColor=default;fillColor=default;" vertex="1" parent="1">
          <mxGeometry x="-620" y="480" width="120" height="80" as="geometry" />
        </mxCell>
        <mxCell id="NIfDBaiQn6gE6HbyJ36T-48" value="游戏类型选择" style="ellipse;whiteSpace=wrap;html=1;strokeColor=default;align=center;verticalAlign=middle;fontFamily=Helvetica;fontSize=12;fontColor=default;fillColor=default;" vertex="1" parent="1">
          <mxGeometry x="-590" y="220" width="120" height="80" as="geometry" />
        </mxCell>
        <mxCell id="NIfDBaiQn6gE6HbyJ36T-49" value="" style="endArrow=none;html=1;rounded=0;fontFamily=Helvetica;fontSize=12;fontColor=default;" edge="1" parent="1" source="NIfDBaiQn6gE6HbyJ36T-44" target="NIfDBaiQn6gE6HbyJ36T-47">
          <mxGeometry width="50" height="50" relative="1" as="geometry">
            <mxPoint x="-700" y="380" as="sourcePoint" />
            <mxPoint x="-650" y="330" as="targetPoint" />
          </mxGeometry>
        </mxCell>
        <mxCell id="NIfDBaiQn6gE6HbyJ36T-50" value="" style="endArrow=none;html=1;rounded=0;fontFamily=Helvetica;fontSize=12;fontColor=default;" edge="1" parent="1" source="NIfDBaiQn6gE6HbyJ36T-44" target="NIfDBaiQn6gE6HbyJ36T-48">
          <mxGeometry width="50" height="50" relative="1" as="geometry">
            <mxPoint x="-700" y="380" as="sourcePoint" />
            <mxPoint x="-650" y="330" as="targetPoint" />
          </mxGeometry>
        </mxCell>
      </root>
    </mxGraphModel>
  </diagram>
</mxfile>
